<?xml version="1.0" encoding="UTF-8" standalone="no"?>
<svg
   version="1.1"
   id="svg2822"
   sodipodi:docname="icon.svg"
   width="300"
   height="300"
   inkscape:version="1.2.2 (b0a84865, 2022-12-01)"
   xmlns:inkscape="http://www.inkscape.org/namespaces/inkscape"
   xmlns:sodipodi="http://sodipodi.sourceforge.net/DTD/sodipodi-0.dtd"
   xmlns="http://www.w3.org/2000/svg"
   xmlns:svg="http://www.w3.org/2000/svg">
  <defs
     id="defs2826" />
  <sodipodi:namedview
     id="namedview2824"
     pagecolor="#ffffff"
     bordercolor="#000000"
     borderopacity="0.25"
     inkscape:showpageshadow="2"
     inkscape:pageopacity="0.0"
     inkscape:pagecheckerboard="0"
     inkscape:deskcolor="#d1d1d1"
     showgrid="false"
     inkscape:zoom="0.55114974"
     inkscape:cx="79.833114"
     inkscape:cy="145.15112"
     inkscape:window-width="1309"
     inkscape:window-height="456"
     inkscape:window-x="59"
     inkscape:window-y="126"
     inkscape:window-maximized="0"
     inkscape:current-layer="svg2822" />
  <rect
     style="fill:#ffacc2;fill-opacity:1;stroke:none;stroke-width:25;stroke-linecap:round;stroke-dasharray:none;stroke-opacity:1"
     id="rect4341"
     width="300"
     height="300"
     x="0"
     y="0"
     ry="82.770233" />
  <path
     d="m 35.116133,247.2821 c 8.859211,-1.15532 17.678562,-7.03357 21.770562,-15.7932 l -3.5e-5,-9e-5 c 12.642065,-26.08318 39.435487,-96.64967 58.94257,-143.911684 14.54166,-35.23172 20.86648,-54.27388 31.10492,-49.59532 8.88323,4.05929 -11.03334,61.897351 -22.70839,103.593434 -9.12862,32.6018 -27.256644,91.49629 -11.02475,96.62512 12.44969,3.12803 15.09196,-12.04958 27.26183,-48.60153 14.20565,-42.66641 24.87244,-74.50944 33.64909,-102.455714 2.27377,-7.45235 4.11549,-13.22791 5.16141,-16.5442 3.61074,-11.35398 9.46701,-22.8582 16.01126,-18.75213 11.64976,7.30944 0.65983,45.00784 -8.67191,83.060344 -4.76233,23.28944 -27.64658,81.11518 -8.03096,88.92846 13.89067,4.58728 29.87442,-48.26623 43.92061,-88.37988 15.29869,-43.690644 21.78627,-61.488934 32.65823,-57.930254 15.81685,5.17726 -2.24817,62.360674 -5.2452,79.973674 -1.09318,6.66314 -3.31748,18.74931 1.50068,25.95094 2.67161,3.9932 6.72181,6.51033 12.98315,6.25993 6.52604,-0.26098 15.20625,-5.35171 15.20625,-5.35171"
     id="path2996-9"
     style="fill:none;stroke:#eeeeee;stroke-width:22.7891;stroke-linecap:round;stroke-dasharray:none;stroke-opacity:0.656028"
     sodipodi:nodetypes="cccssscsccsccsscssc" />
  <path
     d="m 29.14541,238.26614 c 8.85921,-1.15532 17.67856,-7.03357 21.77056,-15.7932 l -3e-5,-9e-5 C 63.558,196.38967 90.35143,125.82318 109.85851,78.56117 c 14.54166,-35.23172 20.86648,-54.273876 31.10492,-49.59532 8.88323,4.05929 -11.03334,61.897351 -22.70839,103.59343 -9.12862,32.6018 -27.25664,91.49629 -11.02475,96.62512 12.44969,3.12803 15.09196,-12.04958 27.26183,-48.60153 14.20565,-42.66641 24.87244,-74.50944 33.64909,-102.45571 2.27377,-7.45235 4.11549,-13.22791 5.16141,-16.5442 3.61074,-11.35398 9.46701,-22.8582 16.01126,-18.75213 11.64976,7.30944 0.65983,45.00784 -8.67191,83.06034 -4.76233,23.28944 -27.64658,81.11518 -8.03096,88.92846 13.89067,4.58728 29.87442,-48.26623 43.92061,-88.37988 15.29869,-43.69064 21.78627,-61.48893 32.65823,-57.93025 15.81685,5.17726 -2.24817,62.36067 -5.2452,79.97367 -1.09318,6.66314 -3.31748,18.74931 1.50068,25.95094 2.67161,3.9932 6.72181,6.51033 12.98315,6.25993 6.52604,-0.26098 15.20625,-5.35171 15.20625,-5.35171"
     id="path2996-9-6"
     style="fill:none;stroke:#fdfdfd;stroke-width:22.7891;stroke-linecap:round;stroke-dasharray:none;stroke-opacity:1"
     sodipodi:nodetypes="cccssscsccsccsscssc" />
</svg>
